<svg xmlns="http://www.w3.org/2000/svg" viewBox="0 0 32 32">
  <defs>
    <linearGradient id="grad1" x1="0%" y1="0%" x2="100%" y2="100%">
      <stop offset="0%" style="stop-color:#229ED9;stop-opacity:1" />
      <stop offset="100%" style="stop-color:#0088CC;stop-opacity:1" />
    </linearGradient>
  </defs>
  <rect width="32" height="32" rx="6" fill="url(#grad1)"/>
  <path d="M26.4 9.8c-.2-.9-1-.9-1.2-.9-.4 0-1.2.3-1.8.6-.6.3-1.2.5-1.2.9 0 .4.8.6 1.1.6.3 0 .7-.1 1-.3.3-.2.7-.4 1.1-.4.5 0 .9.2 1 .5.1.3 0 .5-.2.7-.2.2-.5.3-.8.5l-1 .5c-.4.2-.7.4-.9.7-.2.3-.2.6 0 .9.3.5 1.2 1.3 1.7 1.7.5.4 1 .7 1.1.7.5 0 1.1-.5 1.4-1 .3-.5.3-1.1 0-1.4-.3-.3-.9-.8-1.3-1.1-.4-.3-.8-.6-.7-1 .1-.4 1-.5 1.5-.5.5 0 1 .2 1.3.4.3.2.6.4.9.4.4 0 .7-.2.9-.5.2-.3.1-.6-.1-.8-.2-.2-.6-.5-1-.7l-1.1-.6c-.6-.3-1.1-.6-1.4-1-.3-.4-.3-.9.1-1.4z" fill="white"/>
  <circle cx="10" cy="16" r="3" fill="white"/>
  <circle cx="16" cy="16" r="3" fill="white"/>
  <circle cx="22" cy="16" r="3" fill="white"/>
</svg>
